Patient4_TMGait_0pt5_01_right_16_GRF.mot
version=1
nRows=32
nColumns=19
inDegrees=no
endheader
time	F1x	F1y	F1z	M1x	M1y	M1z	F2x	F2y	F2z	M2x	M2y	M2z	EC1x	EC1y	EC1z	EC2x	EC2y	EC2z
20.75	-31.6251	768.387	69.3126	-278.3866	-63.9501	622.3215	-6.4075	13.5235	-7.9096	5.9903	15.5788	9.7489	-0.0592	0.0182	-0.0073	-0.0462	0.0165	0.9585
20.7632	-21.7975	757.3754	67.4919	-273.0729	-59.2009	615.908	-4.2505	9.8076	-5.6803	4.4003	10.8861	7.297	-0.0592	0.0182	-0.0073	-0.0462	0.0165	0.9585
20.7764	-12.7533	744.8713	65.7464	-267.1762	-54.6308	606.9621	-2.447	6.6939	-3.634	3.025	6.7415	5.267	-0.0592	0.0182	-0.0073	-0.0462	0.0165	0.9585
20.7896	-4.9475	732.2153	64.1771	-261.247	-50.4882	596.4204	-1.0956	4.3578	-1.9858	1.9665	3.4885	3.7685	-0.0592	0.0182	-0.0073	-0.0462	0.0165	0.9585
20.8029	1.5382	720.8783	62.8248	-255.857	-46.8609	585.5752	-0.17448	2.7757	-0.78091	1.2325	1.1668	2.766	-0.0592	0.0182	-0.0073	-0.0462	0.0165	0.9585
20.8161	6.8253	712.1456	61.7362	-251.4937	-43.7797	575.6815	0.37935	1.8277	0.0060248	0.77945	-0.3182	2.1734	-0.0592	0.0182	-0.0073	-0.0462	0.0165	0.9585
20.8293	11.133	706.9169	60.9017	-248.5024	-41.1908	567.6993	0.66398	1.3462	0.45483	0.53968	-1.1455	1.8679	-0.0592	0.0182	-0.0073	-0.0462	0.0165	0.9585
20.8425	14.7182	705.6283	60.3083	-247.0574	-39.0245	562.1974	0.75607	1.1629	0.64769	0.43922	-1.4906	1.7356	-0.0592	0.0182	-0.0073	-0.0462	0.0165	0.9585
20.8557	17.8512	708.2531	59.8866	-247.1649	-37.151	559.3335	0.72359	1.1106	0.67079	0.4053	-1.5201	1.6516	-0.0592	0.0182	-0.0073	-0.0462	0.0165	0.9585
20.8689	20.7622	714.3243	59.5965	-248.6681	-35.4764	558.872	0.62279	1.0323	0.58793	0.36954	-1.364	1.5052	-0.0592	0.0182	-0.0073	-0.0462	0.0165	0.9585
20.8821	23.6266	722.9876	59.3751	-251.2675	-33.8997	560.231	0.48533	0.79299	0.458	0.27226	-1.1253	1.2031	-0.0592	0.0182	-0.0073	-0.0462	0.0165	0.9585
20.8954	26.5685	733.1244	59.1914	-254.5574	-32.3614	562.6098	0.34983	0.26988	0.31235	0.062153	-0.86623	0.64173	-0.0592	0.0182	-0.0073	-0.0462	0.0165	0.9585
20.9086	29.6682	743.5203	58.9906	-258.0883	-30.7884	565.1267	0.23678	-0.61812	0.18511	-0.29602	-0.63852	-0.23977	-0.0592	0.0182	-0.0073	-0.0462	0.0165	0.9585
20.9218	32.9423	753.0238	58.7582	-261.4229	-29.1564	566.9518	0.1767	-1.9125	0.093367	-0.8184	-0.4802	-1.4887	-0.0592	0.0182	-0.0073	-0.0462	0.0165	0.9585
20.935	36.3696	760.7025	58.4902	-264.1911	-27.4552	567.4252	0.1932	-3.5665	0.065052	-1.4858	-0.43241	-3.0705	-0.0592	0.0182	-0.0073	-0.0462	0.0165	0.9585
20.9482	39.9043	765.9451	58.2243	-266.1309	-25.7147	566.1511	0.31206	-5.4056	0.12079	-2.2277	-0.52398	-4.8248	-0.0592	0.0182	-0.0073	-0.0462	0.0165	0.9585
20.9614	43.494	768.5386	58.0007	-267.1199	-23.9669	563.0467	0.57076	-7.0626	0.29949	-2.8957	-0.79688	-6.4045	-0.0592	0.0182	-0.0073	-0.0462	0.0165	0.9585
20.9746	47.0972	768.6546	57.8778	-267.1747	-22.2596	558.3173	0.9931	-7.9097	0.63163	-3.2361	-1.2802	-7.2076	-0.0592	0.0182	-0.0073	-0.0462	0.0165	0.9585
20.9879	50.6568	766.7058	57.9156	-266.4056	-20.649	552.3533	1.6055	-7.0111	1.153	-2.869	-2.0086	-6.3538	-0.0592	0.0182	-0.0073	-0.0462	0.0165	0.9585
21.0011	54.1092	763.1804	58.1694	-264.9599	-19.2021	545.5932	2.3968	-3.0736	1.8731	-1.2741	-2.9763	-2.6085	-0.0592	0.0182	-0.0073	-0.0462	0.0165	0.9585
21.0143	57.3325	758.4685	58.6548	-262.9635	-17.984	538.3941	3.3123	5.4898	2.7798	2.1877	-4.1375	5.5423	-0.0592	0.0182	-0.0073	-0.0462	0.0165	0.9585
21.0275	60.1613	752.6756	59.3252	-260.4584	-17.0346	530.897	4.2069	20.4227	3.7871	8.217	-5.3399	19.7544	-0.0592	0.0182	-0.0073	-0.0462	0.0165	0.9585
21.0407	62.4236	745.4389	60.0455	-257.3428	-16.3401	522.8987	4.7291	43.3757	4.729	17.4753	-6.2797	41.585	-0.0592	0.0182	-0.0073	-0.0462	0.0165	0.9585
21.0539	63.98	735.8602	60.5965	-253.3423	-15.8299	513.7957	4.2156	75.4201	5.3511	30.3883	-6.4522	72.0204	-0.0592	0.0182	-0.0073	-0.0462	0.0165	0.9585
21.0671	64.7612	722.5833	60.6893	-248.0411	-15.3584	502.6254	1.7552	116.3115	5.3551	46.8482	-5.2214	110.8101	-0.0592	0.0182	-0.0073	-0.0462	0.0165	0.9585
21.0804	64.756	704.0969	60.0114	-240.9847	-14.7396	488.3027	-3.0991	163.8663	4.4484	65.9632	-2.1511	155.8479	-0.0592	0.0182	-0.0073	-0.0462	0.0165	0.9585
21.0936	64.0095	679.1372	58.2908	-231.8069	-13.785	469.8891	-9.7789	214.1385	2.31	86.1197	2.8033	203.311	-0.0592	0.0182	-0.0073	-0.0462	0.0165	0.9585
21.1068	62.5866	646.9842	55.3792	-220.3179	-12.3742	446.8085	-17.1847	262.8086	-1.1006	105.5762	9.1869	248.9422	-0.0592	0.0182	-0.0073	-0.0462	0.0165	0.9585
21.12	60.5156	607.5347	51.2798	-206.5124	-10.4883	418.9307	-24.2455	307.4081	-5.4325	123.3434	16.2064	290.2462	-0.0592	0.0182	-0.0073	-0.0462	0.0165	0.9585
21.1332	57.7934	561.1964	46.1429	-190.5319	-8.2132	386.5026	-30.1399	347.4612	-10.1933	139.2497	23.0578	326.6841	-0.0592	0.0182	-0.0073	-0.0462	0.0165	0.9585
21.1464	54.3889	508.881	40.19	-172.6671	-5.6828	350.1543	-34.3444	383.588	-14.7788	153.5809	28.9729	358.8117	-0.0592	0.0182	-0.0073	-0.0462	0.0165	0.9585
21.1596	50.2327	451.9824	33.7104	-153.3577	-3.0887	310.8499	-36.654	416.9031	-18.7377	166.8178	33.4644	387.6998	-0.0592	0.0182	-0.0073	-0.0462	0.0165	0.9585
